<?xml version='1.0' encoding='utf-8'?>
<svg xmlns="http://www.w3.org/2000/svg" version="1.1" id="Layer_1" x="0px" y="0px" width="100%" viewBox="0 0 1254 1254" enable-background="new 0 0 1254 1254" xml:space="preserve">
<path fill="#0247BB" opacity="1.000000" stroke="none" d="M650.620422,490.972992   C650.774902,490.663300 650.929382,490.353607 651.001099,490.011810   C651.001099,490.011810 651.073547,490.063629 651.792175,490.049591   C652.885864,489.392426 653.979492,488.735291 655.785706,488.050537   C656.545410,487.720642 657.305115,487.390717 658.012695,487.019653   C658.012695,487.019653 658.004028,487.085571 658.796570,487.050018   C659.698669,486.685120 660.600769,486.320190 661.813232,486.082336   C661.813232,486.082336 662.148499,486.087830 662.148499,486.087830   C662.148499,486.087830 662.463013,485.971649 663.301025,486.068451   C663.704834,485.698761 664.108643,485.329041 664.996460,485.092926   C665.487976,484.715973 665.979492,484.339020 667.349121,484.049561   C668.068298,483.687408 668.787415,483.325287 669.480774,482.962616   C669.480774,482.962616 669.462402,482.980835 670.341736,483.052704   C671.066223,482.688232 671.790649,482.323761 672.477234,481.948547   C672.477234,481.948547 672.459412,481.983765 673.186829,482.022888   C673.484680,481.694794 673.782532,481.366699 674.008240,481.018555   C674.008240,481.018555 673.989258,481.090942 674.769043,481.017792   C675.682129,480.658356 676.595276,480.298920 677.464478,479.923981   C677.464478,479.923981 677.441284,479.964417 678.212952,480.015228   C678.837524,479.708466 679.462158,479.401733 680.866089,479.038574   C682.418762,478.347565 683.971436,477.656586 685.476868,476.944305   C685.476868,476.944305 685.455872,476.991638 686.222473,477.077515   C686.567078,476.742767 686.911621,476.408051 687.664734,475.920990   C687.931946,475.740814 688.053955,475.490051 688.790039,475.039337   C693.511475,473.606995 698.232910,472.174683 703.708069,470.953796   C708.079590,468.661987 712.703613,466.744080 716.768555,463.998413   C724.564453,458.732605 732.498596,453.434296 736.013672,444.007416   C736.013672,444.007416 736.043762,444.065979 736.718628,443.836121   C742.351685,435.941467 744.456177,426.946869 745.050842,417.448120   C745.799866,405.483765 741.378845,394.899872 735.895386,384.770752   C734.522766,382.235168 730.720947,378.967773 728.555969,379.311829   C723.187561,380.164886 718.119873,382.909943 712.132141,384.996216   C709.499634,385.730194 706.867188,386.464172 703.460327,387.048492   C692.335754,387.893524 681.211243,388.738556 668.845459,389.677887   C672.410400,394.125641 675.195618,397.600586 677.988403,401.008667   C677.988403,401.008667 677.921143,401.012299 677.982117,401.768555   C678.282471,402.509003 678.476318,403.317505 678.899170,403.979675   C685.346741,414.073181 681.553467,423.123322 674.277588,428.959015   C668.699402,433.433014 662.445129,437.064148 656.517334,441.063812   C656.517334,441.063812 656.540527,441.050568 655.701782,440.973633   C653.479614,441.623138 651.257507,442.272644 649.017212,442.985809   C649.017212,442.985809 649.083069,442.980011 649.043274,442.056793   C649.329407,436.041962 649.615540,430.027161 649.979370,423.076263   C649.908630,414.372650 649.837891,405.669006 649.909546,396.084259   C649.950562,393.116302 649.991577,390.148346 650.695068,386.985687   C650.821533,386.336212 650.948059,385.686707 650.997498,385.007080   C650.997498,385.007080 650.967712,385.084229 651.900818,384.987793   C656.672668,384.666901 661.444519,384.346008 667.060303,384.018707   C679.404846,381.705109 691.749390,379.391510 704.940125,377.025452   C707.131104,376.611938 709.322144,376.198425 712.227661,375.854858   C719.091370,373.917450 726.056030,372.270325 732.780396,369.932220   C736.724915,368.560699 740.286926,366.089020 744.754333,364.022766   C748.904480,361.951660 753.054626,359.880524 757.636414,357.721588   C757.873291,357.521667 758.013184,357.268219 757.969421,357.000000   C757.969421,357.000000 758.006775,357.087402 758.738037,357.022949   C760.931580,355.674042 763.229980,354.468536 765.302002,352.953400   C781.303406,341.252136 794.613953,327.665314 799.417786,307.395599   C801.893188,296.950897 801.006836,287.311493 796.009460,277.996826   C796.009460,277.996826 796.075562,277.999695 796.008972,277.225586   C794.210327,271.132812 791.451050,265.666229 786.012512,261.989441   C786.012512,261.989441 786.076233,261.977356 785.944214,261.441223   C785.634644,261.268982 785.325134,261.096741 785.009033,260.990936   C785.009033,260.990936 785.075562,260.984863 784.945923,260.446167   C784.635803,260.272186 784.325745,260.098236 784.009277,259.988647   C784.009277,259.988647 784.071716,259.971771 783.855957,259.314148   C780.305481,257.203186 776.755066,255.092239 773.178955,252.835815   C773.178955,252.835815 773.031738,252.848160 772.745605,252.438873   C772.270386,252.321198 771.795166,252.203522 771.158142,251.810883   C771.158142,251.810883 770.855591,251.709534 770.566162,251.312012   C770.096558,251.181717 769.626953,251.051422 769.119873,250.863205   C769.119873,250.863205 769.057434,250.892700 768.749939,250.447906   C768.232300,250.321823 767.714661,250.195755 766.815918,249.415771   C763.482056,248.338196 760.148193,247.260620 756.418640,246.037521   C756.418640,246.037521 756.019653,245.901443 756.023987,245.970459   C756.023987,245.970459 756.090820,245.952744 755.648254,245.357208   C754.421814,245.209000 753.195435,245.060806 752.004517,244.993652   C752.004517,244.993652 752.085388,244.957748 751.684143,244.382523   C750.758850,244.302185 749.833557,244.221848 748.621277,244.008636   C748.621277,244.008636 748.308411,244.054504 747.820801,243.331009   C746.344849,243.212280 744.819153,243.293900 743.401001,242.942047   C734.713196,240.786591 725.957642,240.849731 717.164368,241.991501   C715.299744,242.233643 713.464111,242.699570 710.877258,243.059326   C709.728577,243.442215 708.579834,243.825119 706.796021,244.125732   C705.572144,244.323471 704.348206,244.521225 702.750122,244.870438   C702.750122,244.870438 702.480835,245.171249 701.727112,245.102539   C694.037964,244.468170 688.088013,248.665955 682.092957,252.449814   C680.052673,253.737579 678.662903,256.055908 676.466919,258.067902   C676.286804,258.363312 676.106689,258.658722 675.464050,259.182434   C675.043274,259.706268 674.622498,260.230103 673.909851,261.406281   C673.508301,261.993317 673.106812,262.580353 672.491394,263.198120   C672.491394,263.198120 672.253052,263.544678 671.965698,264.171844   C671.293640,265.084930 670.621521,265.997986 669.303345,267.227234   C663.944824,275.934113 661.703857,284.899506 667.027466,294.477295   C667.027466,294.477295 667.040283,294.459076 666.930603,295.196472   C667.262268,295.486816 667.593994,295.777161 667.990784,295.999786   C667.990784,295.999786 667.934448,296.072845 668.178284,296.730469   C671.010742,298.493958 673.639832,300.841553 676.713745,301.911377   C685.914307,305.113678 695.636597,305.804291 705.015320,303.784149   C711.300354,302.430359 717.071289,298.689819 723.003601,296.008331   C723.003601,296.008331 722.999023,296.077423 723.747681,296.002106   C728.499695,293.629517 733.251770,291.256927 738.868103,289.033997   C740.908081,288.989502 742.948120,288.945038 745.758240,289.023743   C747.178223,289.529449 748.598267,290.035156 750.028748,290.793610   C750.123108,290.968140 750.266785,291.032471 751.007324,291.529633   C755.565247,295.102692 754.204346,299.279480 751.606201,303.961914   C751.296326,304.361145 750.986389,304.760376 750.167969,305.495728   C744.755615,309.989410 739.343201,314.483124 733.995728,318.990540   C733.995728,318.990540 733.997131,318.924225 733.227905,318.984894   C724.213745,322.539215 715.199585,326.093536 705.764343,329.856201   C705.764343,329.856201 705.444031,330.199768 704.705872,330.113220   C703.139893,330.124969 701.573914,330.136719 699.303894,330.001862   C698.513916,330.318420 697.723877,330.634949 696.991699,330.983887   C696.991699,330.983887 696.981323,330.918457 696.474609,331.012665   C696.311340,331.065796 696.148010,331.118958 695.164490,331.023682   C693.392456,331.333313 691.620483,331.642944 689.404846,332.016571   C689.404846,332.016571 688.984741,332.172943 688.152710,332.027161   C686.371155,332.337891 684.589539,332.648651 681.906860,333.014038   C677.937500,333.064026 673.968140,333.114014 669.249878,333.022705   C668.490173,333.062408 667.730530,333.102112 666.238098,332.966644   C665.117493,333.214783 663.996948,333.462921 662.004456,333.935547   C658.701050,333.940521 655.397644,333.945496 652.050720,333.995422   C652.050720,333.995422 652.070618,333.937042 651.997681,333.286804   C651.651733,333.023102 651.305847,332.759399 650.968201,332.514832   C650.968201,332.514832 650.979858,332.532135 651.029663,331.518890   C650.964783,322.013611 650.899902,312.508362 650.973938,302.140747   C651.273560,298.443085 651.573181,294.745392 652.016479,290.110229   C651.955505,283.742462 651.894592,277.374695 651.979004,270.156616   C651.929199,268.435303 651.879395,266.714020 651.967896,264.102539   C651.924622,261.403473 651.881409,258.704437 651.978699,255.258636   C651.930481,254.503571 651.882202,253.748520 651.970032,252.253220   C651.921936,251.505554 651.873840,250.757889 652.139099,249.385818   C654.076599,247.946152 656.170349,246.673141 657.919495,245.032608   C661.730713,241.457947 665.366516,237.696091 669.009583,234.005539   C669.009583,234.005539 669.023315,234.068726 669.668884,233.859100   C670.139343,232.904556 670.609863,231.950027 670.991394,230.970230   C670.991394,230.970230 670.964478,231.058655 671.394287,230.908096   C671.714783,230.759354 671.850830,230.510025 671.984680,229.603485   C672.018433,229.411179 672.052124,229.218887 672.607483,228.533569   C672.455261,228.348923 672.303101,228.164291 672.018738,228.018982   C672.018738,228.018982 672.059509,228.150772 672.815308,228.380905   C680.699768,218.434006 680.972839,195.133881 671.995117,182.502579   C671.995117,182.502579 671.940186,182.526047 671.982117,181.814255   C671.662109,181.518204 671.342102,181.222168 671.013428,180.991104   C671.013428,180.991104 671.078186,180.981018 671.050537,180.288757   C670.042480,179.168793 669.034363,178.048828 668.010498,176.992188   C668.010498,176.992188 668.075745,176.989899 667.930298,176.458435   C667.623108,176.280594 667.315918,176.102753 667.006531,175.993027   C667.006531,175.993027 667.074524,175.988007 666.942688,175.449921   C666.632996,175.274734 666.323364,175.099548 666.008728,174.989075   C666.008728,174.989075 666.071594,174.972900 665.852783,174.328537   C663.903809,172.861435 661.954834,171.394333 660.003357,169.993011   C660.003357,169.993011 660.068359,169.982788 659.847290,169.339706   C658.569275,168.534073 657.291199,167.728439 656.007446,166.987442   C656.007446,166.987442 656.070312,166.971527 655.819275,166.271133   C652.557251,165.244614 649.295288,164.218094 645.174438,163.064285   C640.269043,162.724411 635.366882,162.160019 630.457642,162.091217   C620.101318,161.946030 611.428955,165.674423 604.992676,173.992340   C604.992676,173.992340 604.974915,173.930634 604.440491,174.052704   C604.270325,174.359970 604.100159,174.667221 603.992615,174.991882   C603.992615,174.991882 603.958435,174.936615 603.310730,175.127899   C602.516968,176.409302 601.723206,177.690704 600.990662,178.995224   C600.990662,178.995224 600.959412,178.937790 600.282227,179.156342   C598.228516,182.965668 595.519043,186.574402 594.277649,190.632248   C592.500732,196.440765 590.434143,202.508286 593.038940,209.580276   C594.434998,215.182770 595.831055,220.785263 597.488892,226.815445   C597.899597,227.489883 598.310364,228.164322 598.919495,229.389725   C598.997803,229.568542 599.076050,229.747345 599.030945,230.670349   C601.619324,238.088364 607.915039,241.917679 613.912170,246.087082   C613.912170,246.087082 613.958496,246.097855 614.117981,246.817459   C614.589661,246.872665 615.061340,246.927856 615.512573,246.954453   C615.512573,246.954453 615.479797,246.967194 615.988708,247.606537   C616.355286,249.400009 616.721802,251.193481 616.963989,253.918747   C617.005432,268.949982 617.046814,283.981232 616.964294,299.876190   C617.330139,303.612122 617.912720,307.342194 618.013672,311.085297   C618.187744,317.538666 618.337769,324.018402 617.910706,330.448090   C617.763916,332.657379 616.384521,335.793060 614.645325,336.665375   C611.608521,338.188507 607.878906,338.435333 604.400269,338.951569   C596.267761,340.158508 588.148682,341.334259 580.784668,345.826874   C580.784668,345.826874 580.687439,346.005615 580.246582,346.088043   C579.864197,346.295654 579.481873,346.503265 578.756226,346.845886   C578.756226,346.845886 578.517761,347.127167 577.925415,347.074860   C576.978088,347.294769 576.030823,347.514709 574.828857,347.803009   C574.828857,347.803009 574.730652,348.047791 574.093445,348.112091   C572.749939,348.664215 571.406433,349.216339 569.482910,350.059326   C569.233337,350.406616 568.983704,350.753906 568.070801,351.119629   C566.679382,351.736694 565.287903,352.353760 563.964355,352.954315   C563.964355,352.954315 563.925293,352.896423 563.164551,353.001617   C562.187195,353.098328 560.946045,352.841187 560.271362,353.344055   C547.183472,363.098724 535.018616,373.649780 530.001526,389.992889   C530.001526,389.992889 529.976501,389.898041 529.319458,390.231110   C521.408569,401.318146 521.220459,425.620575 528.982605,438.008881   C528.982605,438.008881 528.916748,438.015381 528.945068,438.675140   C529.274597,439.137482 529.604187,439.599823 529.992432,440.013062   C529.992432,440.013062 529.917786,440.029846 529.950317,440.674561   C530.280334,441.137939 530.610352,441.601318 530.991089,442.002319   C530.991089,442.002319 530.921936,442.043518 530.960571,442.773254   C531.955811,444.573212 532.678711,446.612549 534.005127,448.121399   C536.478882,450.935547 539.303650,453.441284 541.991882,456.011780   C541.991882,456.011780 541.929565,456.027710 542.143127,456.674103   C545.391541,459.629944 548.413269,462.896790 551.941406,465.468964   C557.266052,469.350800 561.157654,471.247589 568.784912,466.041077   C570.921631,465.023376 573.041870,463.969208 575.197998,462.994446   C583.468567,459.255463 591.750549,455.541931 600.789490,451.963226   C603.415283,450.881592 606.180725,450.040192 608.613403,448.626404   C610.025452,447.805725 611.968506,445.894043 611.788757,444.776398   C611.462646,442.748535 610.168396,440.277649 608.497742,439.182159   C604.241150,436.391205 599.554016,434.256744 594.815247,431.232483   C592.807007,428.880219 590.619690,426.656097 588.825989,424.150269   C584.431641,418.011047 583.884216,411.371765 586.999268,403.733093   C587.040161,403.495300 587.081055,403.257507 587.661438,402.741577   C588.084412,401.910522 588.507324,401.079498 589.163696,400.177673   C589.163696,400.177673 589.225586,399.941711 589.689270,399.676758   C590.157898,399.117462 590.626587,398.558167 591.003784,398.004456   C591.003784,398.004456 591.009766,398.095856 591.586914,397.796692   C592.755554,396.535614 593.924133,395.274536 595.003418,394.002533   C595.003418,394.002533 594.992859,394.091949 595.676880,393.957489   C596.463257,393.665680 597.249573,393.373871 598.753357,393.009308   C599.549133,392.723816 600.344971,392.438324 601.910706,392.046234   C602.781189,391.684204 603.651733,391.322174 604.475159,390.941315   C604.475159,390.941315 604.455383,390.987946 605.179810,391.007965   C605.481262,390.683807 605.782715,390.359650 606.018005,390.023407   C606.018005,390.023407 606.032776,390.088989 606.746643,390.008698   C607.544006,389.706146 608.341309,389.403595 609.070984,389.007996   C609.070984,389.007996 608.977783,389.075409 609.856628,389.011932   C611.897949,389.095306 613.939331,389.178680 615.950134,389.514465   C615.950134,389.514465 616.058105,389.744720 615.928223,390.435516   C616.281982,390.706879 616.635803,390.978210 617.006836,391.654877   C617.006836,391.654877 617.169861,392.026367 617.039673,392.952362   C617.007202,407.758850 616.904907,422.565674 616.984192,437.371582   C617.008423,441.898834 617.531555,446.423431 618.039124,451.524048   C618.072571,451.725616 618.106018,451.927216 618.013916,452.365326   C618.013916,452.365326 618.107178,452.616333 617.395569,452.950043   C617.235901,453.939453 617.076294,454.928833 616.334656,456.086212   C615.847046,456.717102 615.359436,457.347992 614.400879,458.009125   C614.400879,458.009125 613.958435,458.173492 613.143127,458.041321   C611.924316,458.378265 610.705444,458.715240 609.534302,459.067078   C609.534302,459.067078 609.553101,459.020874 608.670898,458.971619   C607.938110,459.327362 607.205322,459.683136 606.515198,460.051361   C606.515198,460.051361 606.529480,460.009216 605.809509,459.960236   C605.517334,460.287384 605.225159,460.614532 604.987427,460.985107   C604.987427,460.985107 604.977600,460.916229 604.245239,460.943298   C603.663635,461.308533 603.082031,461.673767 602.515503,462.026794   C602.515503,462.026794 602.534851,462.024078 601.806152,461.989624   C600.556152,462.912384 599.306152,463.835144 597.790100,464.825897   C597.790100,464.825897 597.643982,465.058472 597.143433,465.098389   C596.733459,465.366150 596.323486,465.633911 595.868530,465.887177   C595.868530,465.887177 595.838379,465.923615 595.171326,466.038818   C593.748413,466.671875 592.325562,467.304932 590.982971,467.933380   C590.982971,467.933380 590.916016,467.888763 590.110046,468.013947   C588.526672,468.298279 586.799988,468.269073 585.382568,468.916626   C574.292480,473.983185 563.658142,479.556671 554.327209,487.819794   C539.612366,500.850647 534.859314,526.218018 546.987732,543.007263   C546.987732,543.007263 546.920044,543.021484 547.050476,543.562500   C547.363831,543.733643 547.677124,543.904785 547.995361,544.001465   C547.995361,544.001465 547.920837,543.997192 547.997131,544.693115   C548.650391,545.818115 549.303650,546.943115 549.984741,548.008606   C549.984741,548.008606 549.919617,548.000244 550.101685,548.617371   C550.413452,548.911987 550.725220,549.206543 551.159302,549.840759   C551.453552,550.047974 551.747803,550.255249 551.964111,551.181641   C552.284241,551.475220 552.604309,551.768860 552.975403,552.044067   C552.975403,552.044067 552.946045,552.089661 553.144287,552.780334   C553.812134,553.462708 554.479980,554.145020 555.072510,554.841187   C555.072510,554.841187 555.159973,554.848633 555.756165,555.354675   C559.160583,557.595703 562.564941,559.836670 565.992676,562.013672   C565.992676,562.013672 565.932312,562.045166 566.133911,562.708984   C568.759094,563.756775 571.384277,564.804504 574.670654,565.993225   C575.495789,565.345276 576.320984,564.697327 577.877808,564.030457   C581.944458,561.691101 586.011169,559.351807 589.986816,557.001465   C589.986816,557.001465 589.975403,557.092468 590.779968,556.975769   C597.934509,554.447327 605.193848,552.171204 612.191467,549.265076   C614.952576,548.118408 614.643372,543.032776 612.088379,540.958313   C611.112122,540.165649 609.860535,539.703552 608.915588,538.882324   C603.267029,533.973450 597.370361,529.213135 598.045105,520.514526   C598.481873,514.883789 602.576172,511.703461 606.036194,507.984070   C606.036194,507.984070 605.927124,508.013641 606.356445,507.854767   C606.654419,507.715027 606.838867,507.484497 607.625854,507.015869   C607.856934,506.938507 608.088013,506.861176 608.707642,506.586365   C609.087708,506.164948 609.467834,505.743530 610.260437,505.122498   C610.260437,505.122498 610.545227,504.763367 611.268555,504.818359   C612.997803,504.558960 614.726990,504.299530 616.737488,503.997955   C616.832153,505.456116 616.985779,506.725891 616.985901,507.995667   C616.987122,518.567566 616.959351,529.139465 616.941833,539.711365   C616.932251,545.483398 616.925842,551.255432 617.047363,557.041382   C617.047363,557.041382 617.064697,556.912354 616.641296,556.397766   C616.291199,556.657654 615.941101,556.917603 614.768677,557.029480   C608.009460,559.777344 601.250305,562.525208 594.058350,565.761963   C587.582153,567.892639 581.451965,570.602661 576.992249,575.991394   C576.992249,575.991394 576.981445,575.923828 576.266479,575.972229   C568.901367,581.122803 564.308350,588.496399 562.219604,596.844238   C560.894958,602.138123 562.115051,608.068726 562.032410,614.587830   C562.439392,616.288940 562.846313,617.989990 563.235962,620.248352   C564.035095,621.762756 564.834229,623.277161 565.864563,625.242859   C565.988403,625.357910 566.112183,625.473022 566.210388,626.230164   C566.774414,627.730164 567.190979,629.307190 567.927063,630.717407   C571.922913,638.373108 579.285400,640.412781 585.366455,636.454407   C592.354187,631.905945 599.746887,627.929199 607.189941,624.149719   C611.512512,621.954773 612.136597,620.439819 609.153809,616.438477   C608.160095,615.105347 607.370483,613.412598 607.100891,611.782837   C605.871643,604.351013 611.001953,601.171387 617.015442,597.566956   C617.015442,603.199341 616.722168,608.143311 617.082092,613.039368   C617.666504,620.988525 617.534729,628.325928 607.989258,630.985352   C607.989258,630.985352 607.965576,630.922485 607.307434,630.967224   C606.908508,631.517639 606.509583,632.068054 605.808044,632.786316   C605.808044,632.786316 605.617554,633.075195 605.188049,633.102966   C604.828796,633.298767 604.469604,633.494507 603.770935,633.830994   C603.770935,633.830994 603.541199,634.117737 603.001282,634.092896   C602.350708,634.336487 601.700134,634.580078 600.501282,635.041260   C600.286499,635.360229 600.071777,635.679260 599.097900,636.037781   C594.957153,638.343323 590.543518,640.270935 586.728088,643.026855   C576.228149,650.611023 571.298828,665.821228 577.515198,678.246887   C580.914368,685.041199 585.945618,689.908447 592.261780,693.987183   C597.542480,697.397217 603.433899,698.308899 608.412292,694.830811   C609.900757,693.790894 611.646606,691.917175 611.748657,690.327454   C612.020813,686.091797 611.811829,681.747681 611.148010,677.548828   C610.285156,672.090942 612.146667,666.693481 616.963989,664.011230   C616.963989,671.032593 616.879456,677.760071 617.018494,684.482971   C617.057312,686.360840 617.755981,688.225037 618.018188,690.349182   C618.018188,690.349182 618.105835,690.622314 617.371948,690.969971   C617.089905,691.967346 616.807922,692.964722 616.023987,694.240723   C615.994751,694.807556 615.965515,695.374329 615.986938,695.988220   C615.986938,695.988220 615.980164,695.919373 615.314331,695.926392   C614.855347,696.258423 614.396301,696.590454 613.986694,696.970032   C613.986694,696.970032 614.002991,696.903381 613.282715,696.995850   C612.498535,697.308350 611.714294,697.620850 610.989502,697.978333   C610.989502,697.978333 610.971619,697.906006 610.175842,697.985474   C607.075623,699.617004 603.975464,701.248535 600.253662,703.013306   C600.053955,703.084229 599.854248,703.155151 599.111206,703.577698   C591.057800,708.232605 582.742371,712.499573 575.053223,717.693726   C570.716614,720.623169 567.240051,724.931152 563.760986,728.951355   C562.878906,729.970703 563.069458,732.403259 563.591003,733.899170   C563.783325,734.450928 566.350403,734.174744 568.604797,734.065247   C570.382080,733.657593 572.159363,733.249939 574.741577,732.999023   C581.543518,730.335632 588.345398,727.672241 595.814758,724.720703   C600.662720,722.741882 605.510681,720.763062 611.079651,718.881470   C612.661255,718.807739 614.242798,718.733948 616.426941,718.632141   C616.915527,720.210205 617.880676,721.992676 617.963989,723.815369   C618.471375,734.908325 618.778137,746.010437 618.989807,757.779236   C619.299744,758.540344 619.609680,759.301514 620.005249,760.724915   C620.068359,761.163513 620.131470,761.602051 620.059814,762.926758   C620.962769,769.987671 621.865723,777.048584 622.970703,784.856445   C623.309448,789.245361 625.983337,791.485840 630.060120,791.997009   C633.817200,792.468201 636.354553,790.217957 637.435608,786.965332   C638.375244,784.138062 638.395630,781.005310 638.969971,777.303345   C639.274963,776.223755 639.579956,775.144226 640.003174,773.302490   C639.943542,772.536316 639.883911,771.770081 640.002380,770.166748   C640.341614,767.299194 640.736877,764.436890 641.010071,761.563049   C642.041016,750.716736 643.030273,739.866394 644.039368,729.018005   C644.377502,725.383118 644.727844,721.749329 645.100342,717.822693   C652.154114,719.970520 658.445801,721.886353 665.469604,724.122314   C667.975952,724.789673 670.482300,725.457031 673.393188,726.711853   C680.677795,729.341187 687.927551,732.076416 695.280884,734.497009   C696.528809,734.907776 698.711914,734.424866 699.562073,733.514038   C700.314697,732.707642 700.462585,730.069336 699.759094,729.377930   C695.353699,725.049133 690.634888,721.039307 686.008118,716.987244   C686.008118,716.987244 686.070007,716.969604 685.856934,716.317017   C684.579529,715.518127 683.302185,714.719177 682.009399,713.984436   C682.009399,713.984436 682.070496,713.959595 681.863098,713.299683   C679.606018,711.834717 677.348938,710.369812 674.823792,708.247009   C672.523438,706.807556 670.282654,705.259827 667.908569,703.954468   C664.484863,702.072144 661.451660,702.493591 658.923706,706.455627   C658.625977,706.688904 658.328247,706.922119 657.261475,706.999451   C655.129028,707.953064 652.996521,708.906616 650.083557,709.951233   C648.588562,708.858032 644.610046,714.274353 645.013184,708.009705   C645.013184,708.009705 645.042908,708.073364 645.582947,707.972900   C645.746094,707.663574 645.909180,707.354187 646.011108,707.015564   C646.011108,707.015564 646.030029,707.080688 646.698486,707.084900   C647.146606,706.758118 647.594727,706.431335 648.073059,706.087524   C648.073059,706.087524 648.085999,706.055420 648.855164,706.021057   C650.381592,705.294617 651.908020,704.568237 653.862549,704.072388   C655.237061,703.090881 656.611572,702.109375 658.717407,701.021851   C659.594055,700.610291 660.470703,700.198730 662.068542,699.871643   C666.969055,697.195129 672.025146,694.765625 676.741089,691.796021   C691.035400,682.795349 695.039795,668.662415 689.035400,653.417480   C687.147766,648.625000 684.331055,647.518433 679.753113,649.549194   C675.328491,651.511963 670.745361,653.114380 666.268616,654.964294   C664.119995,655.852112 662.056396,656.945801 659.142395,657.971252   C657.568176,658.282776 656.000732,658.635803 654.418335,658.897583   C650.595581,659.529907 648.639282,661.101257 648.837891,665.626282   C649.016357,669.691772 647.632874,673.825867 646.978271,677.999207   C646.978271,677.999207 646.927185,677.932068 646.353577,677.744934   C646.190674,677.169556 646.027832,676.594238 645.958984,675.098816   C645.911682,671.395569 645.864441,667.692322 645.997620,663.090271   C646.027832,659.732178 646.057983,656.374146 646.017273,653.016357   C646.017273,653.016357 646.020325,653.087097 646.689697,653.080811   C647.142395,652.754700 647.595093,652.428650 648.094177,652.095886   C648.094177,652.095886 648.104248,652.050171 648.766296,652.067627   C649.535645,651.845032 650.304932,651.622437 651.723450,651.064026   C652.525940,650.724182 653.328430,650.384399 654.581421,649.985901   C654.581421,649.985901 655.010010,649.835205 655.883667,649.982178   C658.242371,649.933716 660.601013,649.885315 663.563171,650.089172   C665.927856,649.718079 668.972778,650.153137 670.537170,648.833374   C676.645020,643.680298 682.941772,638.506897 687.951599,632.350830   C696.548340,621.787231 698.046448,609.477783 693.985229,596.493530   C693.985229,596.493530 693.938232,596.522278 693.987488,595.760620   C693.955627,595.509033 693.923767,595.257507 693.955688,594.460693   C693.654663,594.286987 693.353699,594.113342 693.014343,593.992981   C693.014343,593.992981 693.079895,593.988831 693.023254,593.213501   C691.590088,590.193909 690.622559,586.789673 688.558594,584.291199   C687.205383,582.653076 683.941528,581.122925 682.095398,581.622192   C674.919495,583.562744 667.968384,586.334229 660.138733,588.953430   C658.074280,589.323181 656.009766,589.692993 653.258484,589.908325   C652.461365,590.178467 651.664185,590.448669 650.122681,590.938904   C649.268005,591.248779 648.413330,591.558655 646.975037,592.080078   C646.975037,589.591431 646.975037,587.526978 646.949036,585.482727   C646.949036,585.482727 646.956360,585.514832 647.457581,585.062073   C648.037659,584.390747 648.617798,583.719421 649.776184,583.045288   C650.197083,582.753479 650.617981,582.461670 651.749634,582.024963   C652.547424,581.697632 653.345215,581.370300 654.669739,580.812317   C655.402649,580.314270 656.135620,579.816284 657.689392,579.087891   C659.596741,578.660217 661.504089,578.232544 664.184692,577.811035   C665.264771,577.507385 666.400391,576.814758 667.416382,576.959839   C678.376831,578.525574 687.646973,574.485352 695.988464,568.053040   C704.635559,561.385010 713.851624,555.041992 716.980713,542.732117   C717.030518,542.482727 717.080322,542.233337 717.776245,541.615051   C723.784363,527.743591 720.676758,514.689941 713.877747,501.317108   C711.591736,498.520264 709.305725,495.723419 707.010864,492.992615   C707.010864,492.992615 707.077393,492.988617 707.033630,492.272827   C697.895569,481.607758 698.892944,480.660095 686.745667,485.972076   C685.874146,486.353119 684.937073,486.581390 684.047546,486.924774   C676.190735,489.957886 668.337708,493.000916 660.524963,496.054016   C660.524963,496.054016 660.542603,496.014252 659.838196,496.012695   C659.527893,496.319489 659.217590,496.626282 658.420532,497.014771   C658.420532,497.014771 657.953369,497.174011 657.171265,497.019836   C656.276306,497.369019 655.381348,497.718201 654.540222,498.083282   C654.540222,498.083282 654.559998,498.030762 653.785828,498.007294   C653.167542,498.313202 652.549255,498.619141 651.223572,498.982727   C650.797363,499.637024 650.371094,500.291321 649.206665,500.562500   C649.101196,498.013916 648.995728,495.465363 649.035950,492.633179   C649.035950,492.633179 649.015442,492.315063 649.561584,492.092896   C649.726685,491.765289 649.891846,491.437683 650.048096,491.073395   C650.048096,491.073395 650.085815,491.072296 650.620422,490.972992 M183.091003,701.643066   C183.406250,701.922791 183.721512,702.202454 183.913605,702.910767   C184.103317,703.266602 184.293030,703.622498 184.920059,704.449890   C185.277084,704.658264 185.634094,704.866638 185.988022,705.010254   C185.988022,705.010254 185.928574,705.036072 185.965927,705.677612   C186.567184,706.478149 187.168457,707.278687 187.952835,708.781494   C190.206635,712.319885 192.363327,715.924927 194.734375,719.382935   C199.738159,726.680664 204.854050,733.901489 209.967804,741.854248   C214.098511,747.855774 218.105957,753.947693 222.412628,759.820190   C224.524475,762.699890 227.191864,765.172180 229.830688,768.192322   C229.830688,768.192322 230.184631,768.429932 230.253769,768.606628   C230.253769,768.606628 230.571167,768.801147 230.843155,769.209229   C230.843155,769.209229 231.232315,769.507629 231.205612,770.024109   C232.010315,770.938232 232.815033,771.852356 233.956329,773.578186   C234.051804,773.855164 234.147293,774.132080 234.599747,774.887024   C235.014008,775.943054 235.428268,776.999084 235.956100,778.772827   C240.957321,785.883728 245.958542,792.994568 251.283325,800.727478   C257.122162,809.474243 262.960999,818.220947 268.833191,827.181030   C268.833191,827.181030 269.044373,827.226135 269.397491,827.770569   C272.527802,832.144348 275.658112,836.518127 278.998169,841.683350   C279.082520,841.942932 279.166840,842.202454 279.285400,842.614502   C279.285400,842.614502 279.528046,842.775391 279.815094,843.178223   C279.815094,843.178223 280.214691,843.469849 280.163513,843.968994   C280.680206,844.606384 281.196899,845.243835 281.910431,846.276245   C281.910431,846.276245 282.248322,846.560181 282.163239,847.167419   C282.757568,848.466187 283.351898,849.764893 283.988739,851.005737   C283.988739,851.005737 283.921936,851.032104 283.968018,851.764465   C285.377625,854.094177 286.818176,856.405762 288.191223,858.756836   C292.814423,866.673035 297.413605,874.603333 302.058197,882.495178   C302.058197,882.495178 302.025604,882.458679 301.917938,883.240967   C302.999817,885.013000 304.154449,886.745178 305.150970,888.563965   C309.428284,896.370544 313.659088,904.202515 317.981110,912.767822   C319.972595,916.842834 322.154297,920.837402 323.919708,925.008118   C329.053741,937.137085 334.021057,949.336731 339.045380,961.487244   C339.045380,961.487244 339.035736,961.466370 339.015991,962.177124   C339.335999,962.475220 339.656006,962.773376 339.988403,963.006409   C339.988403,963.006409 339.922211,963.008606 339.984894,963.819580   C342.141449,971.894531 344.392548,979.945740 346.422089,988.052490   C347.826874,993.663818 348.926056,999.351624 350.018097,1005.790710   C350.323181,1007.226196 350.628265,1008.661743 351.012451,1010.571167   C351.012451,1010.571167 351.166351,1011.026306 351.018250,1011.856689   C351.327667,1013.640991 351.637054,1015.425354 351.996887,1017.810547   C352.052521,1018.206604 352.108185,1018.602600 352.019897,1019.784485   C352.323547,1021.218262 352.627167,1022.652039 352.989044,1024.814819   C353.043182,1025.540894 353.097321,1026.266968 353.013184,1027.922241   C353.070099,1038.595093 353.126984,1049.268066 353.107391,1060.802490   C353.150177,1063.003784 353.192993,1065.205078 353.037506,1068.247681   C353.042633,1069.399048 353.047760,1070.550293 352.353058,1072.181885   C350.984222,1080.548462 349.615417,1088.915161 348.016602,1098.122314   C347.070099,1102.560913 346.123596,1106.999512 344.742279,1111.968994   C343.501343,1114.517700 342.065582,1116.991577 341.054565,1119.628418   C337.448456,1129.033203 333.958588,1138.483154 330.482880,1147.937378   C328.889160,1152.272339 327.430756,1156.657104 326.024445,1160.893799   C326.024445,1160.893799 325.900116,1160.779175 325.215698,1160.684570   C324.763824,1161.787476 324.311951,1162.890259 324.309784,1164.760254   C324.967407,1164.841187 325.625000,1164.993042 326.282623,1164.992920   C390.939423,1164.980347 455.596191,1164.956421 520.715698,1164.944092   C521.003906,1164.751099 521.143616,1164.481079 521.785645,1163.660645   C522.215637,1161.813354 522.500916,1159.917725 523.099487,1158.126709   C526.615906,1147.605103 530.205444,1137.107910 534.061890,1125.848145   C536.780151,1118.536377 539.498413,1111.224731 542.749817,1103.493286   C547.203857,1091.942749 551.687195,1080.403442 556.086243,1068.832031   C556.924744,1066.626343 557.429810,1064.294067 558.021851,1062.011597   C558.021851,1062.011597 558.051392,1062.072266 558.726685,1061.855835   C558.849915,1060.932861 558.973145,1060.009766 559.763672,1058.837280   C559.862610,1057.901489 559.961487,1056.965698 560.722351,1055.687500   C561.828064,1052.836670 562.952026,1049.992676 564.035828,1047.133545   C566.591370,1040.392090 569.127808,1033.643433 572.028748,1026.277100   C574.172241,1022.923401 576.507385,1019.674744 578.416443,1016.192505   C581.698669,1010.205444 584.715210,1004.072632 588.156738,997.346985   C592.133728,987.489746 597.637146,977.939819 599.699890,967.697083   C602.254700,955.010742 602.187195,941.760010 602.755493,928.731384   C602.934204,924.636047 601.510437,920.470764 600.970032,915.330200   C600.898315,914.319092 600.826538,913.308044 600.818726,911.583069   C600.165161,907.431458 599.827576,903.199402 598.795166,899.144226   C596.309814,889.382141 593.499023,879.703003 590.977234,869.237000   C586.777771,860.555786 582.578308,851.874573 578.154846,842.770996   C578.154846,842.770996 577.785156,842.467834 577.803711,841.904907   C577.200684,840.904846 576.597656,839.904846 576.028687,838.977539   C576.028687,838.977539 576.100647,838.941833 575.985535,838.183899   C575.823425,837.406616 575.890137,836.463684 575.465210,835.876648   C567.742126,825.207092 559.959839,814.580444 551.941650,803.401978   C551.072327,802.651428 550.203003,801.900879 549.109741,800.757935   C549.109741,800.757935 548.711914,800.543701 548.345764,800.182312   C547.705200,799.191589 547.064697,798.200867 546.116699,796.676880   C545.993408,796.512939 545.870117,796.348938 545.783569,795.756592   C545.288818,795.206238 544.794128,794.655884 544.137451,793.757751   C544.137451,793.757751 543.799011,793.577026 543.568970,793.279358   C543.198364,792.928467 542.827820,792.577576 542.142700,791.711914   C542.010315,791.560608 541.877869,791.409241 541.735229,790.713867   C540.820496,790.106567 539.905762,789.499268 538.973633,789.003662   C538.973633,789.003662 539.085144,789.022400 539.265076,788.285400   C537.843811,786.823242 536.422607,785.361145 534.984070,784.006592   C534.984070,784.006592 535.091492,784.024780 535.369385,783.376465   C534.685669,782.295776 534.001892,781.215149 533.101501,779.686035   C533.101501,779.686035 532.754944,779.328369 532.767273,778.737366   C527.618164,772.201904 522.469116,765.666382 517.222717,758.852112   C517.222717,758.852112 516.943237,758.757080 516.954346,758.031799   C516.171570,756.347107 515.627869,754.490540 514.562805,753.008728   C510.834656,747.821960 507.022705,742.688477 503.063324,737.676453   C497.811401,731.028259 492.391022,724.513245 487.024231,717.218201   C484.023682,713.454102 481.023163,709.689941 478.012360,705.991089   C478.012360,705.991089 478.078064,705.984985 478.030334,705.255554   C474.867920,700.825500 471.774323,696.344177 468.524994,691.978821   C464.766357,686.929138 460.814056,682.023743 457.046967,676.980164   C450.333557,667.992126 443.696198,658.947266 437.014313,649.990906   C437.014313,649.990906 437.080200,649.986511 437.038635,649.250122   C432.177307,642.109680 427.380707,634.923828 422.414825,627.856812   C420.945526,625.765869 418.999176,624.010132 417.137970,621.757507   C417.137970,621.757507 416.843475,621.536255 416.744751,621.373840   C416.744751,621.373840 416.413727,621.175415 416.147614,620.759644   C416.147614,620.759644 415.764862,620.447937 415.808350,620.153564   C415.853271,619.831177 415.778656,619.550110 414.786591,618.883057   C414.430084,618.406128 414.073578,617.929260 413.470459,617.203308   C413.141113,616.885193 412.811768,616.567078 412.174713,615.807251   C412.027069,615.705200 411.879456,615.603149 411.667969,615.356445   C411.667969,615.356445 411.392670,615.240356 411.050842,614.404480   C410.952332,614.119995 410.853821,613.835571 410.308502,613.062683   C405.860504,606.200623 401.412537,599.338562 396.685455,592.003723   C395.947754,591.007751 395.210052,590.011780 394.034454,588.449524   C393.678772,588.132202 393.323059,587.814819 392.732605,587.055298   C392.331665,586.374634 391.930695,585.693970 391.100159,584.529358   C390.740509,584.326599 390.380890,584.123840 390.012543,583.986572   C390.012543,583.986572 390.070160,583.954346 389.851929,583.307007   C388.241791,581.514404 386.631653,579.721802 385.010071,577.993347   C385.010071,577.993347 385.074890,577.986816 385.024811,577.270996   C383.282776,574.952576 381.547577,572.628967 379.797089,570.316956   C377.383240,567.128906 374.477814,564.377441 370.328888,564.250305   C366.313141,564.127258 360.930206,563.287964 358.566803,565.431030   C355.205353,568.479065 352.761780,573.819824 352.240540,578.442139   C351.276733,586.989441 351.510834,595.760193 352.120972,604.375916   C353.030090,617.213867 354.981537,629.927979 361.049500,642.341309   C362.781372,647.362305 364.513245,652.383240 366.619995,657.891602   C367.645264,659.869568 368.670532,661.847595 369.860046,664.189697   C369.860046,664.189697 370.192139,664.411621 370.083252,665.093872   C373.002258,670.899109 375.901489,676.714600 378.872681,682.492981   C379.152679,683.037537 379.885559,683.349304 380.805328,684.217163   C380.953186,684.351257 381.101074,684.485291 381.206573,685.124695   C381.694489,686.022583 382.182404,686.920532 382.857941,688.194641   C382.857941,688.194641 383.207489,688.428284 383.303802,688.637451   C383.303802,688.637451 383.712128,688.821594 383.968719,689.562195   C384.045807,689.811829 384.122925,690.061462 384.127838,690.982727   C386.399445,695.023499 388.612518,699.098572 390.954102,703.098450   C396.996674,713.420227 403.096008,723.708862 409.020844,734.745972   C413.714081,744.662476 418.407318,754.578918 423.036163,764.524109   C423.036163,764.524109 423.095734,764.561829 423.030426,765.518921   C422.992981,767.670593 422.955536,769.822205 422.983459,771.991333   C422.983459,771.991333 422.952026,771.931396 422.348938,772.139587   C422.177795,772.742920 422.006683,773.346191 421.386230,774.056763   C421.098206,774.233032 420.948334,774.489868 420.260498,775.163330   C416.802887,776.737488 413.477600,779.100220 409.399536,777.002991   C404.022308,774.237671 397.869537,772.369202 393.420776,768.527832   C381.573364,758.297791 370.463928,747.213501 359.049255,736.481445   C357.744446,735.254578 356.363983,734.108215 355.008728,732.992310   C355.008728,732.992310 355.077087,732.995239 354.932465,732.459961   C354.623413,732.281067 354.314392,732.102173 354.007446,731.992554   C354.007446,731.992554 354.076447,731.985901 354.050446,731.247559   C351.412872,728.814941 348.775269,726.382324 345.881439,723.348999   C344.593018,722.207642 343.304596,721.066284 342.008514,719.993835   C342.008514,719.993835 342.077759,719.996948 341.931976,719.460449   C341.621735,719.281799 341.311523,719.103149 341.003021,718.998108   C341.003021,718.998108 341.076630,718.995911 341.025726,718.279724   C334.854828,711.483826 328.820251,704.557495 322.476074,697.927429   C315.656799,690.800781 308.412781,684.080383 301.599579,676.948181   C294.001251,668.994080 286.684845,660.770874 279.234924,652.674744   C274.538422,647.570801 269.829559,642.478210 265.112732,637.393066   C259.087097,630.896851 253.047836,624.413269 247.009491,617.992798   C247.009491,617.992798 247.078201,617.991272 247.039658,617.269287   C244.386627,614.008850 241.849091,610.645630 239.057312,607.508667   C232.617691,600.272766 225.912552,593.269592 219.575577,585.946716   C210.401993,575.345886 201.493500,564.516235 192.404877,553.841248   C186.155777,546.501343 179.760544,539.286072 173.487991,531.965942   C161.707123,518.217712 150.001389,504.404968 138.195847,490.678009   C132.948380,484.576447 127.743797,478.414490 122.138435,472.650787   C116.275200,466.621979 110.147568,460.812134 103.756554,455.349945   C100.225372,452.331940 97.568985,453.247650 97.109833,457.875305   C96.277107,466.268219 96.236931,474.763123 96.312546,483.211487   C96.343681,486.690002 97.529785,490.158173 98.057594,494.596527   C98.119583,495.240540 98.181572,495.884552 98.170074,497.298737   C98.803825,503.306458 98.672943,509.518433 100.212975,515.284058   C105.066406,533.454407 110.063759,551.616516 115.947968,569.471130   C120.125572,582.147278 125.808968,594.328613 130.908142,606.694641   C131.137970,607.251953 132.237350,607.450684 132.572723,607.865906   C132.572723,607.865906 132.526733,608.226440 132.526733,608.226440   C132.526733,608.226440 132.861633,608.365540 132.013107,608.298340   C132.323776,609.220459 132.634430,610.142517 132.988510,611.011353   C132.988510,611.011353 132.920761,611.022644 133.090042,611.636658   C133.410263,611.915344 133.730484,612.194031 134.018616,612.471313   C134.018616,612.471313 134.056564,612.457825 133.988602,613.287842   C141.013550,627.022461 148.038498,640.757080 155.024307,654.501343   C155.024307,654.501343 155.049454,654.470825 155.007706,655.183655   C155.328156,655.479797 155.648605,655.775879 155.985077,656.009277   C155.985077,656.009277 155.922470,656.025879 155.977982,656.769287   C163.602997,669.531372 171.227997,682.293518 178.979721,695.777649   C179.376617,696.186279 179.773514,696.594849 180.170410,697.003479   C180.283386,696.757263 180.396362,696.511108 179.853043,696.519348   C180.581390,697.502014 181.309723,698.484619 181.991211,700.177795   C182.309158,700.472351 182.627106,700.766846 182.997833,701.013550   C182.997833,701.013550 182.928970,701.031799 183.091003,701.643066 M961.003784,917.023193   C961.003784,917.023193 961.071960,917.071228 961.790527,916.882019   C961.858948,916.405823 961.927368,915.929626 961.941040,915.479553   C961.941040,915.479553 961.968262,915.533752 962.631165,915.045471   C962.703918,913.988525 962.776672,912.931519 963.043701,911.424194   C963.043701,911.424194 963.157898,910.947205 963.707031,910.636230   C964.826416,909.111511 965.945801,907.586853 967.000000,906.000000   C967.000000,906.000000 967.061768,906.066040 967.757507,905.859009   C967.830017,905.395203 967.902527,904.931396 967.977234,904.487671   C967.977234,904.487671 967.959961,904.497681 968.667236,904.039795   C968.771545,903.515503 968.875793,902.991272 968.953369,902.486023   C968.953369,902.486023 968.961365,902.517883 969.628784,902.080505   C970.457886,899.928528 971.286987,897.776550 972.747253,895.738281   C973.028137,894.867615 973.309021,893.997009 974.284790,893.090454   C974.548828,892.736694 974.812927,892.382935 975.008606,892.008362   C975.008606,892.008362 975.055481,892.062439 975.695740,891.764099   C976.359314,890.471924 976.903992,889.100586 977.704041,887.899353   C991.079834,867.815063 1004.403748,847.695496 1017.915100,827.702576   C1028.401978,812.185059 1039.131714,796.831604 1050.045288,780.571045   C1050.170898,780.304565 1050.296387,780.038086 1050.599365,779.711304   C1050.599365,779.711304 1050.792847,779.406250 1051.141479,779.200684   C1051.141479,779.200684 1051.327026,778.840942 1051.816772,778.498108   C1053.569092,776.577332 1055.484497,774.779907 1057.046753,772.715271   C1066.419067,760.329224 1075.891846,748.012756 1084.975464,735.416687   C1093.376465,723.767090 1101.331665,711.796021 1109.872803,699.757324   C1109.902100,699.334229 1109.931274,698.911072 1110.443115,698.074951   C1110.655151,697.726501 1110.867188,697.378052 1111.016113,697.038269   C1111.016113,697.038269 1111.084961,697.044434 1111.764282,696.826782   C1112.625366,695.306274 1113.476807,693.780090 1114.349243,692.266113   C1119.499268,683.329956 1124.654053,674.396545 1130.359253,665.044983   C1130.506104,664.867065 1130.652832,664.689087 1131.266968,664.088013   C1135.063110,657.020691 1138.859131,649.953308 1143.021606,642.263733   C1148.303345,632.088135 1154.011963,622.105896 1158.734497,611.677124   C1162.669922,602.986267 1165.448608,593.771606 1169.027710,584.008240   C1171.703979,576.365784 1174.380127,568.723328 1177.733521,560.720703   C1178.517334,557.482544 1179.301147,554.244446 1180.019043,551.008301   C1180.019043,551.008301 1180.041870,551.070251 1180.688477,550.806885   C1180.843018,549.900330 1180.997559,548.993774 1181.082153,548.065308   C1181.082153,548.065308 1181.078735,548.138611 1181.699707,547.888611   C1181.761597,547.250183 1181.823486,546.611694 1182.020020,545.631775   C1182.020020,545.631775 1182.039185,545.265137 1182.759399,544.940552   C1182.759888,543.670471 1182.760376,542.400452 1182.847412,540.317139   C1183.871826,538.018005 1185.431274,535.806702 1185.825684,533.404175   C1187.340576,524.177917 1188.481934,514.890320 1189.970093,504.748444   C1190.041138,504.152130 1190.112061,503.555786 1190.788330,502.451843   C1191.187378,493.600952 1191.635254,484.751709 1191.932983,475.897400   C1191.978516,474.545990 1191.328857,473.171234 1190.740967,471.230591   C1189.019043,471.905060 1187.297119,472.579529 1185.392822,473.296661   C1185.392822,473.296661 1185.233521,473.612854 1184.664429,473.918640   C1184.166626,474.326691 1183.668823,474.734741 1182.443604,475.026154   C1180.605591,476.679016 1178.767700,478.331909 1176.995605,479.992981   C1176.995605,479.992981 1176.991699,479.926788 1176.279907,479.980713   C1172.163208,484.318176 1168.046387,488.655670 1163.997559,492.997223   C1163.997559,492.997223 1163.993530,492.929474 1163.272583,492.981476   C1162.490845,493.983612 1161.709106,494.985748 1160.992310,495.994720   C1160.992310,495.994720 1160.983887,495.929901 1160.327759,496.167664   C1158.913696,497.247894 1157.325439,498.162720 1156.115845,499.437134   C1151.036011,504.788971 1145.987427,510.175598 1141.090698,515.694336   C1137.898804,519.291748 1134.988281,523.138672 1131.329590,527.139404   C1127.802002,530.666931 1124.102173,534.040100 1120.776978,537.749207   C1107.664185,552.375488 1094.718262,567.151245 1081.611694,581.783142   C1074.104980,590.163513 1066.544067,598.503357 1058.770508,606.634827   C1040.913574,625.313538 1023.023499,643.963135 1004.923706,662.405579   C995.118530,672.396301 984.844543,681.926208 974.801697,691.684326   C961.677246,704.436646 948.687866,717.330566 935.428162,729.940369   C920.722290,743.925232 905.852356,757.740417 890.903198,771.465332   C883.901917,777.893372 876.105225,783.061707 865.959778,783.276245   C865.001160,783.100586 864.042603,782.924927 862.835815,782.165161   C861.612427,781.434692 860.389038,780.704224 859.026733,779.144470   C858.712341,776.418518 858.397888,773.692505 858.025757,771.005310   C858.025757,771.005310 858.092957,771.022949 858.604736,770.934204   C858.702393,770.632324 858.800049,770.330383 859.014954,769.282410   C859.078247,768.535339 859.141541,767.788208 859.850037,766.738037   C860.256897,765.183716 860.663696,763.629333 860.999512,762.016357   C860.999512,762.016357 861.075195,762.064148 861.813354,761.787598   C861.863098,761.010071 861.912781,760.232605 861.966797,759.475952   C861.966797,759.475952 861.955688,759.493958 862.590210,758.986206   C862.718628,758.480774 862.847046,757.975342 862.978210,757.489136   C862.978210,757.489136 862.962341,757.500000 863.585571,756.982361   C863.715271,756.478271 863.844971,755.974182 863.979858,755.489746   C863.979858,755.489746 863.961853,755.498657 864.593689,754.987488   C864.720276,754.481628 864.846924,753.975708 864.948853,753.489380   C864.948853,753.489380 864.954468,753.520325 865.541809,753.044128   C866.718018,750.717041 867.894226,748.389893 869.013062,746.005188   C869.013062,746.005188 869.043030,746.080688 869.587463,746.009705   C869.746948,745.702087 869.906433,745.394531 870.099426,745.073669   C870.099426,745.073669 870.115723,745.041565 870.821716,744.871277   C871.941589,742.267273 873.061462,739.663330 874.813477,736.751831   C877.234314,732.526062 879.655151,728.300232 882.010071,724.014404   C882.010071,724.014404 882.086853,724.059021 882.776062,723.855774   C886.331665,717.930664 889.954346,712.044556 893.425537,706.070374   C897.597717,698.889648 901.640869,691.633972 905.962769,683.663208   C906.979980,681.148926 907.997131,678.634644 909.761047,676.059570   C916.494751,668.414124 919.319031,659.006042 921.978455,648.635010   C924.029541,640.418274 926.080627,632.201538 928.751953,623.486450   C929.470764,616.325928 930.509216,609.178589 930.805298,602.000610   C931.034912,596.433167 930.461304,590.817444 930.017456,585.241272   C929.550415,579.372498 927.825745,573.520813 921.869385,571.519409   C916.138245,569.593628 910.062744,570.654968 905.782959,575.713867   C899.043823,583.679871 892.399414,591.734558 885.973694,599.953979   C881.694092,605.428040 877.864563,611.253906 873.212158,617.187561   C872.278687,618.127014 871.202515,618.962708 870.432861,620.021240   C855.331970,640.788086 840.338074,661.633240 825.169617,682.350525   C814.693542,696.658936 804.119446,710.899780 793.348694,724.986938   C779.483459,743.121338 765.352783,761.052612 751.383423,779.107605   C740.302612,793.429199 729.122803,807.679443 718.327515,822.214233   C713.444336,828.789001 709.387756,835.977722 704.292175,843.155823   C702.038086,847.087646 699.783997,851.019409 696.955322,855.390137   C694.946228,860.416016 692.949829,865.447021 690.925476,870.466736   C685.610779,883.645569 681.474609,897.130310 680.046570,912.283630   C680.005005,913.831482 679.963379,915.379395 679.238708,917.357483   C678.829895,920.825500 678.421082,924.293579 677.185547,928.158264   C677.110657,936.544312 677.012695,944.930359 677.006775,953.316467   C677.006287,953.952515 677.659119,954.589050 677.994812,956.036499   C678.398621,958.373474 678.802429,960.710510 679.049316,963.912964   C679.407349,977.755493 685.311401,989.867859 690.989075,1001.997131   C690.989075,1001.997131 690.932800,1002.049011 690.951477,1002.661438   C691.246338,1003.130188 691.541138,1003.598938 691.955933,1004.723145   C692.623535,1005.523010 693.291199,1006.322876 693.979919,1007.854858   C696.629211,1012.588928 699.278564,1017.322937 701.977356,1022.033752   C701.977356,1022.033752 701.949524,1022.080872 702.058594,1022.608887   C702.355591,1022.796936 702.652588,1022.984985 702.949280,1023.934204   C702.966797,1024.432739 702.854065,1024.980347 703.020569,1025.422852   C709.943115,1043.822021 717.077942,1062.143677 723.780579,1080.622192   C730.039612,1097.877441 735.888794,1115.282227 741.829529,1132.651611   C745.320618,1142.858765 748.638611,1153.125244 752.268494,1164.070923   C757.856628,1165.513062 764.475342,1165.583618 771.500977,1164.041138   C771.500977,1164.041138 771.911743,1164.093018 772.360229,1164.846924   C810.585876,1164.897095 848.811462,1164.952026 887.037109,1164.959717   C887.720520,1164.959839 888.404114,1164.392822 889.496033,1164.040527   C889.496033,1164.040527 889.876282,1163.883423 890.841003,1163.950195   C907.317200,1163.952881 923.793396,1163.955933 940.269592,1163.958374   C942.873901,1163.958862 945.478210,1163.957275 948.802612,1163.979370   C948.514526,1162.820435 948.226379,1161.661499 947.961426,1160.513550   C947.961426,1160.513550 947.954224,1160.538208 947.960266,1159.732300   C947.622681,1159.325073 947.285095,1158.917969 946.974609,1158.519043   C946.974609,1158.519043 946.957886,1158.542114 946.985046,1157.826904   C946.666260,1157.526123 946.347534,1157.225342 946.016052,1156.989136   C946.016052,1156.989136 946.080872,1156.978149 946.067810,1156.217651   C941.578491,1144.450928 936.884521,1132.756836 932.669617,1120.892700   C929.712280,1112.568115 927.408142,1104.011353 924.960449,1094.480957   C924.889954,1093.399902 924.819397,1092.318970 924.819763,1090.498047   C924.226624,1083.522461 923.176819,1076.549072 923.141296,1069.570679   C923.079163,1057.346924 923.255615,1045.094604 924.068237,1032.903198   C924.648438,1024.197876 926.305481,1015.552002 927.719238,1006.918396   C928.885559,999.795654 930.399780,992.729980 932.054199,984.868042   C933.101624,981.556213 934.149109,978.244324 935.755798,974.530884   C937.199768,970.623474 938.505554,966.658203 940.113892,962.819641   C944.703735,951.865295 949.416565,940.962463 954.002441,930.010864   C954.002441,930.010864 954.081909,930.047058 954.749695,929.844971   C955.189575,928.584778 955.629395,927.324646 956.000000,926.004883   C956.000000,926.004883 956.069519,926.060181 956.749878,925.842407   C957.525696,923.907898 958.301453,921.973389 959.015137,920.007141   C959.015137,920.007141 959.042969,920.071106 959.719238,919.836182   C959.803467,919.379150 959.887695,918.922058 959.963196,918.484375   C959.963196,918.484375 959.943481,918.492554 960.424072,918.073547   C960.644409,917.729553 960.864746,917.385559 961.003784,917.023193 M574.829407,243.531952   C574.739502,243.376801 574.605530,243.283096 573.602356,243.041443   C567.234253,241.396683 560.866150,239.751938 553.977478,237.314240   C545.360291,237.261658 536.743164,237.209091 527.305054,237.274078   C526.870300,237.490021 526.444458,237.873581 525.999451,237.897354   C515.144897,238.477524 504.796143,241.292236 495.321533,246.398376   C490.389801,249.056229 486.365601,253.398041 481.992828,256.992859   C481.992828,256.992859 481.979370,256.931427 481.270172,256.981506   C480.490417,257.980255 479.710632,258.979034 478.990936,259.994873   C478.990936,259.994873 478.971100,259.935669 478.312897,260.153168   C475.867310,264.341339 473.421692,268.529480 470.252533,273.041718   C470.178680,273.543274 470.104828,274.044800 469.918610,274.859406   C469.882690,275.090363 469.930054,275.302765 469.461456,276.006470   C469.279816,277.009369 469.098175,278.012268 468.981476,278.994141   C468.981476,278.994141 468.951416,278.932831 468.273376,279.221649   C468.124878,280.429688 467.976379,281.637726 467.092987,283.221436   C467.117981,285.146057 467.143005,287.070648 467.005585,289.768005   C467.061249,292.514038 467.116943,295.260101 467.026642,298.764771   C467.330566,299.883026 467.634521,301.001312 467.993774,302.951996   C468.765656,310.406281 470.960907,317.295990 475.989197,323.006744   C475.989197,323.006744 475.926147,323.016724 475.993134,323.731262   C481.567108,329.915863 487.105560,336.133270 492.755371,342.247742   C493.554962,343.113068 494.897217,343.476990 495.994934,344.009216   C495.994934,344.009216 495.932526,344.023743 496.154358,344.682800   C502.110016,348.627136 508.065704,352.571442 514.229614,356.908051   C514.653931,356.925079 515.078186,356.942108 515.991272,357.546417   C520.786194,359.735687 525.526978,362.059143 530.409607,364.031219   C531.846313,364.611481 534.272095,364.913330 535.242065,364.118866   C540.652771,359.686798 545.755615,354.878937 551.713440,350.053345   C555.333740,348.302917 558.954102,346.552490 563.242798,344.893616   C573.118652,340.652985 584.246643,339.154175 593.030029,332.521271   C592.903259,331.963715 592.776428,331.406158 592.649658,330.848633   C591.299438,330.642059 589.949219,330.435486 588.220215,329.834839   C588.069153,329.733032 587.918030,329.631226 587.722961,329.394531   C587.722961,329.394531 587.471680,329.264435 586.615845,329.049622   C585.440002,329.019470 584.264099,328.989319 582.693604,328.276001   C575.477417,326.479034 568.275085,324.623383 561.036011,322.923676   C559.070557,322.462158 556.994507,322.471161 554.319153,321.882172   C553.203491,321.248840 552.132568,320.513885 550.964722,319.998993   C544.209351,317.020630 537.343750,314.275543 530.696594,311.075195   C527.275146,309.427826 524.228943,307.000885 521.007568,304.992310   C521.007568,304.992310 521.073486,304.985046 521.048462,304.271759   C519.302551,302.171112 517.556580,300.070465 515.972290,297.156525   C513.482117,289.690857 514.521606,284.294678 525.289368,284.136719   C528.691833,284.086823 532.111572,285.207977 535.645325,286.025757   C535.645325,286.025757 535.906860,286.049988 536.209778,286.692261   C540.485229,289.292847 544.760681,291.893463 549.072571,294.745636   C549.168152,294.913086 549.311768,294.985840 550.033264,295.585907   C550.822205,295.690430 551.611206,295.794922 552.481079,296.006744   C552.481079,296.006744 552.588684,295.926208 553.057861,296.558380   C567.491699,304.418640 582.027283,303.180298 596.668579,297.148621   C602.433533,294.773621 605.940552,290.670563 604.897705,284.425598   C603.827698,278.017365 601.658813,271.792572 599.741028,265.046875   C599.331482,264.374451 598.921997,263.702057 598.063110,262.565582   C597.705017,262.352905 597.346985,262.140228 596.998596,262.003754   C596.998596,262.003754 597.074829,261.994537 597.020203,261.264526   C592.500183,253.595306 586.305542,247.929596 577.411865,244.952820   C577.411865,244.952820 577.060608,244.937958 576.771423,244.476532   C576.276978,244.325089 575.782532,244.173645 575.212830,243.795151   C575.212830,243.795151 575.030273,243.640656 574.829407,243.531952  z" />
</svg>